<svg width="200" height="190" viewBox="0 0 200 190" fill="none" xmlns="http://www.w3.org/2000/svg">
<path d="M181.25 95H18.75C13.7772 95 9.00805 97.1448 5.49175 100.962C1.97544 104.78 0 109.958 0 115.357C0 120.756 1.97544 125.934 5.49175 129.752C9.00805 133.57 13.7772 135.714 18.75 135.714H181.25C186.223 135.714 190.992 133.57 194.508 129.752C198.025 125.934 200 120.756 200 115.357C200 109.958 198.025 104.78 194.508 100.962C190.992 97.1448 186.223 95 181.25 95V95ZM187.5 149.286H12.5C10.8424 149.286 9.25268 150.001 8.08058 151.273C6.90848 152.546 6.25 154.272 6.25 156.071V162.857C6.25 170.056 8.88392 176.96 13.5723 182.05C18.2607 187.14 24.6196 190 31.25 190H168.75C175.38 190 181.739 187.14 186.428 182.05C191.116 176.96 193.75 170.056 193.75 162.857V156.071C193.75 154.272 193.092 152.546 191.919 151.273C190.747 150.001 189.158 149.286 187.5 149.286ZM22.9062 81.4286H177.094C190.598 81.4286 198.43 62.8103 190.695 49.2473C175 21.7143 140.449 0.0424107 100 0C59.5547 0.0424107 25 21.7143 9.30469 49.2431C1.5625 62.806 9.40234 81.4286 22.9062 81.4286ZM150 33.9286C151.236 33.9286 152.445 34.3265 153.472 35.0722C154.5 35.8178 155.301 36.8776 155.774 38.1175C156.247 39.3574 156.371 40.7218 156.13 42.0381C155.889 43.3544 155.294 44.5635 154.419 45.5125C153.545 46.4615 152.432 47.1078 151.219 47.3696C150.007 47.6314 148.75 47.4971 147.608 46.9835C146.466 46.4699 145.49 45.6001 144.803 44.4842C144.117 43.3683 143.75 42.0564 143.75 40.7143C143.75 38.9146 144.408 37.1886 145.581 35.9161C146.753 34.6435 148.342 33.9286 150 33.9286V33.9286ZM100 20.3571C101.236 20.3571 102.445 20.7551 103.472 21.5007C104.5 22.2464 105.301 23.3062 105.774 24.5461C106.247 25.786 106.371 27.1504 106.13 28.4667C105.889 29.783 105.294 30.9921 104.419 31.9411C103.545 32.8901 102.432 33.5364 101.219 33.7982C100.007 34.06 98.7503 33.9256 97.6082 33.412C96.4662 32.8984 95.4901 32.0287 94.8033 30.9128C94.1166 29.7969 93.75 28.4849 93.75 27.1429C93.75 25.3432 94.4085 23.6172 95.5806 22.3446C96.7527 21.0721 98.3424 20.3571 100 20.3571V20.3571ZM50 33.9286C51.2361 33.9286 52.4445 34.3265 53.4723 35.0722C54.5001 35.8178 55.3012 36.8776 55.7742 38.1175C56.2473 39.3574 56.3711 40.7218 56.1299 42.0381C55.8888 43.3544 55.2935 44.5635 54.4194 45.5125C53.5453 46.4615 52.4317 47.1078 51.2193 47.3696C50.0069 47.6314 48.7503 47.4971 47.6082 46.9835C46.4662 46.4699 45.4901 45.6001 44.8033 44.4842C44.1166 43.3683 43.75 42.0564 43.75 40.7143C43.75 38.9146 44.4085 37.1886 45.5806 35.9161C46.7527 34.6435 48.3424 33.9286 50 33.9286V33.9286Z" fill="#4A9B70"/>
</svg>
